<?xml version="1.0" standalone="no"?>
<!DOCTYPE svg PUBLIC "-//W3C//DTD SVG 20010904//EN"
 "http://www.w3.org/TR/2001/REC-SVG-20010904/DTD/svg10.dtd">
<svg version="1.0" xmlns="http://www.w3.org/2000/svg"
 width="150.000000pt" height="150.000000pt" viewBox="0 0 150.000000 150.000000"
 preserveAspectRatio="xMidYMid meet">
<metadata>
Created by potrace 1.11, written by Peter Selinger 2001-2013
</metadata>
<g transform="translate(0.000000,150.000000) scale(0.100000,-0.100000)"
fill="#000000" stroke="none">
<path d="M0 750 l0 -750 750 0 750 0 0 750 0 750 -750 0 -750 0 0 -750z m827
348 c23 -26 283 -639 283 -668 0 -25 -34 -44 -57 -31 -10 5 -34 48 -53 95
l-35 86 -184 -2 -184 -3 -36 -83 c-20 -46 -43 -88 -53 -93 -21 -12 -46 -2 -53
21 -7 21 254 651 281 682 23 25 66 23 91 -4z"/>
<path d="M708 832 c-38 -87 -68 -162 -68 -165 0 -4 63 -7 140 -7 90 0 140 4
140 10 0 16 -132 320 -139 320 -3 0 -36 -71 -73 -158z"/>
</g>
</svg>
